/* XPM */
static char *_6805_87bae3237d1cbca9433ac57ae5338051a2ce2266eca2b7ed36d861242b76ce11[] = {
/* columns rows colors chars-per-pixel */
"64 64 235 2 ",
"   c #030401",
".  c #0B0401",
"X  c #040B02",
"o  c #0C0B03",
"O  c #04020E",
"+  c #0B030A",
"@  c #0C0B0A",
"#  c #130502",
"$  c #1C0502",
"%  c #150B02",
"&  c #1C0B02",
"*  c #12040B",
"=  c #1D050A",
"-  c #150C0A",
";  c #1C0B0B",
":  c #0B1103",
">  c #121204",
",  c #1B1205",
"<  c #171009",
"1  c #1C120C",
"2  c #040B11",
"3  c #090714",
"4  c #130A12",
"5  c #1A0B11",
"6  c #150512",
"7  c #1A1314",
"8  c #230502",
"9  c #2A0503",
"0  c #230B04",
"q  c #2C0C03",
"w  c #24060B",
"e  c #2C050B",
"r  c #240C0B",
"t  c #2C0C0B",
"y  c #320603",
"u  c #3C0604",
"i  c #340D04",
"p  c #3C0C04",
"a  c #330609",
"s  c #3B0609",
"d  c #340B0C",
"f  c #3B0B0C",
"g  c #251203",
"h  c #2C1005",
"j  c #24120A",
"k  c #2C110C",
"l  c #331104",
"z  c #3A1205",
"x  c #34120D",
"c  c #3B120C",
"v  c #240C11",
"b  c #2D0E11",
"n  c #2A0610",
"m  c #3C0612",
"M  c #330D12",
"N  c #3B0D12",
"B  c #3C0C1A",
"V  c #340712",
"C  c #251413",
"Z  c #2D1512",
"A  c #2B1419",
"S  c #2C1915",
"D  c #341212",
"F  c #3B1213",
"G  c #341817",
"H  c #361419",
"J  c #3C131C",
"K  c #430C05",
"L  c #4B0D05",
"P  c #440C0B",
"I  c #4B0C0B",
"U  c #420707",
"Y  c #550E0C",
"T  c #5E0E0D",
"R  c #421005",
"E  c #4A1106",
"W  c #43110D",
"Q  c #4B130E",
"!  c #53130E",
"~  c #5D110D",
"^  c #5C190D",
"/  c #430D12",
"(  c #4D0E14",
")  c #480610",
"_  c #540E13",
"`  c #590D18",
"'  c #431314",
"]  c #4C1413",
"[  c #4C1B13",
"{  c #4C1519",
"}  c #45191B",
"|  c #4C1B1A",
" . c #43181B",
".. c #531414",
"X. c #5C1515",
"o. c #541A14",
"O. c #5C1A15",
"+. c #54151B",
"@. c #5C151A",
"#. c #541B1A",
"$. c #5C1B1B",
"%. c #760E0D",
"&. c #6C120D",
"*. c #66160D",
"=. c #711A0F",
"-. c #77150F",
";. c #730F1C",
":. c #641514",
">. c #6C1514",
",. c #641B15",
"<. c #6B1A15",
"1. c #63151B",
"2. c #6C161B",
"3. c #641B1C",
"4. c #6C1C1B",
"5. c #741614",
"6. c #7B1513",
"7. c #731A15",
"8. c #7B1C16",
"9. c #73161A",
"0. c #7B1619",
"q. c #741B1B",
"w. c #7B1C1C",
"e. c #4A211F",
"r. c #5B201A",
"t. c #662117",
"y. c #6C2215",
"u. c #64211B",
"i. c #6C211C",
"p. c #742216",
"a. c #7B2215",
"s. c #74221B",
"d. c #7C221C",
"f. c #75281B",
"g. c #7A2A1E",
"h. c #4D1C21",
"j. c #4C1721",
"k. c #5B1621",
"l. c #531B21",
"z. c #5C1B21",
"x. c #641521",
"c. c #6D1522",
"v. c #641C22",
"b. c #6C1B22",
"n. c #6D1A2A",
"m. c #741622",
"M. c #731C22",
"N. c #7C1D23",
"B. c #741D29",
"V. c #7D1E2A",
"C. c #5B2325",
"Z. c #642122",
"A. c #6B2321",
"S. c #742323",
"D. c #7C2224",
"F. c #752A24",
"G. c #74252A",
"H. c #7D232A",
"J. c #7C2A2B",
"K. c #792C29",
"L. c #7D2633",
"P. c #86190D",
"I. c #831516",
"U. c #831C15",
"Y. c #8B1B16",
"T. c #83151B",
"R. c #831C1B",
"E. c #8B1D1C",
"W. c #8B141A",
"Q. c #931C1C",
"!. c #931C1A",
"~. c #812116",
"^. c #892115",
"/. c #83221C",
"(. c #8A221D",
"). c #8A281F",
"_. c #912116",
"`. c #93211E",
"'. c #992319",
"]. c #841D24",
"[. c #8B1D23",
"{. c #841E2A",
"}. c #8C1D2A",
"|. c #861624",
" X c #931D24",
".X c #9B1C24",
"XX c #931D2A",
"oX c #9B1E2A",
"OX c #981523",
"+X c #921E32",
"@X c #881E35",
"#X c #A41E25",
"$X c #A31F2A",
"%X c #AC1B22",
"&X c #842323",
"*X c #8B2324",
"=X c #852925",
"-X c #8A2924",
";X c #84242A",
":X c #8C232A",
">X c #842929",
",X c #8C292B",
"<X c #932324",
"1X c #9B2325",
"2X c #932926",
"3X c #9C2925",
"4X c #93242A",
"5X c #9C252B",
"6X c #94292B",
"7X c #9C2A2C",
"8X c #9D302D",
"9X c #842B32",
"0X c #892431",
"qX c #9E2632",
"wX c #9D2B32",
"eX c #952931",
"rX c #9F3034",
"tX c #A32425",
"yX c #A92425",
"uX c #A52925",
"iX c #A3242B",
"pX c #AA252D",
"aX c #A32A2C",
"sX c #AB2A2C",
"dX c #B12A2D",
"fX c #A0302F",
"gX c #A32532",
"hX c #AA2434",
"jX c #A42C33",
"kX c #AA2C34",
"lX c #AA2538",
"zX c #B12C34",
"xX c #B82B34",
"cX c #A93133",
"vX c #A63035",
/* pixels */
"4 R K / P p  .M R f / # d I I x d c D z ' 6 f R p c p F p x P P v 0 I h ' / B c s +.% r _ u c P c P x h ) F . ] i c P D / c P c ",
"P uXaXeXiXtXaX#X1XaX6Xl &XiX7X1XsX1XgXyX5XM =XsX5XaX3XaXaX5XiXkX{ :.dX3XpXiXiX7X7X7XE q.kX2XwX2X5XyXsX8XlXq.K kX2XsX1X5XgX7XiX[.",
"D 1X7.3.I.w.S.w.<.0.H.# :X].4.0.7.7.].<.w.$ :Xd.5.q.q.0.].7.>.].N I 6X,.3.s.9.8.4.{.z $.4X<.w.w.s.R.-.>.;X..q qX2.w.q.7.0.i.N.4.",
"P tXU.S.R.a.q.~.d.U.:X9 5X*Xs.E./.7.9.d.<X0 }.Y.R.d.s.R.R.U.s.2Xc ! 7XU.d./.d.-.0.<XL 9.5Xq.Y.0.7.d.~.w.*XO.K gX0./.p./.Y.7.*Xq.",
"f &XM.H.w.H.V.].N.M.G.9 2.S.S.V.&XH.V.W.S.g B.&XH.w.G.J.].{.G.*XD ..:X].D.].H.].M.H.W X.;XA.H.M.;XV.D.D.;XX.c H.B.N.S.H.J.G.V.2.",
"# , $ 8 0 5 + 9 8 % r . - 0 8 8 $ @ w 8 %   n & 8 $ 1 X 9 r & 8 @ # 8 8 % 8 # = 8 j . # 0 $ 0 t - # & $ 9 $ o & r 9 & #   t = $ ",
" X).<X4X*X3.F 2X2X=X[..X<XQ.].,X*Xt u.6X.X*X+X(.*X[.*Xz |.>XXX:X>X[. X X=X4XQ ' 5X*X[.*X1X<X&X Xy 3.eX/.].XX,X X(.[.4X3.P oX=X*X",
"R.g.].8.'.c.k tX6.-XN.E.F.E.D.R.&X9 *X>XW.~.}.a.w.*X*X& :X&XE.w./.E.&XR.s.7XI | aXd.].]./.[.d.4Xc 2.5XR.&XR.d.E./.E.1X#.i lX/.w.",
"6.y.4.9./.C.t aX7.y.w.w.q.0.<.q.=X. *X].5.p.2.p.9.T.w.0 [.D.0.5.s.w.9.2.i.:XP } 1X<.9.d.7.6.p.*Xk <.<Xb.q.6.7.b.7.7.w.o.p jX:.6.",
"2X*X].*X`.2./ 3X*X&X:X X&X X=X*X].t [.:XQ.-X+XE.,X*X;Xz XX>X*X*X].[. X4X>X4XY ..iX/.:X*X*X<X=X Xf <.1X&X:X1X2X[.*X*X:X3.L qX&X,X",
"b f f F f w @ f s d H b Z N D a d   t x s 1 B f t d Z   a M t x G q f d q a # - f d S b f D a F * 0 c t M M C m q f M ; . N d k ",
"8 3.1.$.:.3.z.>.:.$.1.8 ..3.3.2.2.3.3.t.:.0 $.O.O.2.v.#.b.2.X.3.d i 3.O.3.>.3.3.3.1.q I 2.$.2.1.b.3.:.3.2.' g 2.O.2.3.3.3.4.2.E ",
"Q fX1X,X1XtX7X`.2X6X5Xi 5X:X1X7X1XiX*X2X1Xi :X7X1X1X2X5X1XtX1XsXW ~ jX2X7XoX7X1X2XjXL 0.kX-X7X2X1X1X`.2XjX2.R jX2XiX<X5XiX1XiX/.",
"d 1X8.4.w.7.2.s.5.q.].% :XD.0.>.2.8.4.7.&X% {.(.2.q.<.0.9.q.<.&XN ..6X<.9.9.q.7.<.{.i $.6X:.q.w.<.q.<.7.[.+.9 7X<.q.<.<.0.:.w.u.",
"_ tXU.N.*X~.R.&X^.(.*X9 ].<XR.(.d.(./.^.1Xd  X!.R./.d.(.(.d.R.2XP ~ yXR.*X&X*X/.R.*XE <.aX(.w.U.d.*X(.a. X2.R sXw./.*X/.Q.d.*Xf.",
"; <.o.l.3.$.@.1.#.1.l.. { m.#.#.+.$.k.O.+.2 @.$.1.z.o.@.3.| X.2.7 k q.! k.l.@.O.#.x.t x c.3.o.$.$.1.k.#.2.J o 3.x.#.@.#.2.$.$.( ",
"q q d d i b * i t y a D s k 9 f i O q y a l r d a a M . 1 P d i s M t j 9 c # w P g k a q i y x = % c y q d F 0 a q x V X s q d ",
"iX1XeXjX1Xb.] sX7X7X7X7X5X7X7XjX2XM *XaXjX7XiXiX6XaXgXp XXgX7X7X3X1XiXjXiXkXo.o.dX,X7XgXqXaX1XjXI 4.kX5XwXiX5XiX5XsXwX1.d zXaXaX",
"i.w.0.<.&X$.q 5X9.q.q.9.q.9.D.>.R.X ;XE.2.9.[.:.7.w.H.: eXH.<.7.d.7.4.q.<.:Xi } 2X<.w.0.q.w.<.*Xj 3.*X>.w.w.i.0.i.>.].r.j gX&.S.",
"7.~.R.q./.3.p sX8.U.w.R.q.U.R.a.1X% :X(.0.0.R.f.R.0.=X& XX].8./.p.8.d.R.T.1XP +.3X8.Y.0.8.U.w. Xi 7.5X8.w.R.4.8.s.w.Q.3.z pX6.s.",
"XXg.N.{.;XX.d :XN.&XD.G.H.}.].S.M.r M.R.>X0X{.].{.D.L.9 m.{.H.w.;X].w.&XH.{.' / *XS.;XH.N.&XS.{.f o.>XD.V.}.V.&X].D.{.{ a :X&X{.",
"= g # r t & . r $ q r X r t 8 0 $ . ; 8 5 6 & 9 9 & j # - a 0 0 = w 8 > & r o 8 8 0 . # r ; & e - . 0 % r e . r t % 8 v o 8 8 w ",
"V 1X=XV.[.).oX:X-XXX*Xq T.:X[.6X7X*X4X_.;Xm p.2X:X&XE.XX=XE.&X7XW ..1X*XOX*X,X5X:X:Xo.4.1X&X:X*X:X<X2X*X*X:.K ,X&X&X(.oX[.=X2Xs.",
"d yX/.]. Xf.d.E.w. X:X- XX>X].R.8.&X[.U.:Xr =X1XR.>XW. X=X*X(.2XF E pXa. XF.d.Y.[.}.l :.iX/.*Xw.d.[.R.0.7X$.q hX*XY./.*X{.g.Q.q.",
"D #X=.i.R.<.0.<.<.T.N.o }.D.w.7.q.7.q.P.K.* *X].0.<.0.7.q.0.<./.F [ 5X&.>.Z.9.8.9.=Xi :.4X,.0.7.-.4.4.7.E.#.q 5X2.<.w.0.9.=.8.i.",
"' 3X).;X X-X5X*X=X1X*Xh XX:X}.*X X*X:X^.0XB -X2X*X=X4X*X*X X*X7XK O.7X-X6X,X:X X*X6X! q.qX-X*X*X<X:X4X(.*Xv.W jX:X-X[.[.,X*X2XH.",
". x d M a D b f t s M   M N f d N v M i V O & f a t H v D B d a o 1 f 9 d M b M f b . = N x k d S V f y F v   f M d d H A d f w ",
"@.^ :.x.X.W w X.O.X.3...$.1.:.o.O.% ] ^ 1.v.^ :.1.@.X.8 ] 1.O.3.1.$.:.O.:.3.q d 5.o.O.#.:.:.#.3.; P 3.X.3.1...2.@.X.O./ 9 :.:.$.",
"5X<X<X:X5Xq.c kX2X<X2X1X*X1X2X2X2X0 *X3X4XaX<X`.1X4X:Xu 6X1X*X3X5X1X<X6X5XqXQ +.dX).7X7X2X`.*XsXc q.jX-X<X5X1X5X2X`.2Xm.U vXE.7X",
"<.q.4.4.[.$.q 7Xs.9.q.0.7.9.w.q.*X. H.^.4.9.7.t.7.q.D.& >XH.9.7.s.9.4.4.5.}.y +.3X:.9.9.7.0.q.].x :.2X7.4.8.s.:.9.7.H.$.0 vX7.2.",
"/.(.D.E.Q.4.I uXR.Y.E.*XE.R.(.R.!.r <X!.R.R.*X*X(.E.[.q ].XX(.^.p.E.D./.E.1XE 1.uXd.*XE.^.R.(.1XU 7.tXE.&XU.*X&X(.U.(.3.i pX^.^.",
"3.@.k.v.3.G w 3.#.@.$.#.b.#.$.$.o.@ @.X.$.3.@.1.$.o.v.o ` v.#.o.#.2...$.:.3.1 a 2.o.z.x.#.#.$.3.7 x <.@.C.:.3.k.$.O.v.j.@ ;.$.$.",
"- z y B f q k f h a f X k s a d 9 N j q / # b p d k a k a k f f r 0 W 8 x a d d t B % ; P t k P f k i d d M $ d t c x a d d k M ",
") 3X8XrXiX7XwX$XtXaXqXp *X5XaXaXpX7X5XuXiXl &XsXtXaXtXuXuX7XtXsXW X.kX1XsXaX7X7XqXiXY 9.zX2XfX1X XkXiX7XvX9.U jX7XhXiX5XjXaXaX[.",
"D 1X7.1.I.w.A.w.7.w.H.$ 0X*Xw.q.8.s.[.i.M.& +Xs.9.D.2.R.w.w.<.:XF Q eX<.5.d.N.w.7.*Xi O.4X&.w.w.S.].5.<.:Xo.g qX<.T.q.9.d.2.{.:.",
"P tXR.w.Y.7.q.a.a.9.{.$  XE.7.0.U.4.9.~.2X8 XX*Xw.d.A.T.T.w.q.,X' ! pX8.U.d.w.7.8.2Xz <.5X8.Y.q.7.U.U.d.[.:.z iXy.U.s.w.w.7.&Xf.",
"i =XH.N.].>X0XR.*XH.J.g m.>X;X{.&X0X{.].V., B.[.&X0.J.&X[.{.S.[.M { 6XS.H.V.;X{.N.V.' @.0X;X{.S.{.&X{.N.:X@.p H.;Xw.D.[.0XH.;X9.",
"o 0 8 8 8 ; * 8 8 # ;   # 9 % 8 % * r 8 $ X r 8 0 $ 1 X 9 0 0 8 * # 9 & > r = w 8 ; o # e & 8 r ; o 0 $ 0 & # ; q $ r % # r $ 8 ",
"[.E.XX&X(.@.f *X-XD.[.XX=XE.d.,X].0 3.(..X&X[.(.H.{.N.h V.V.{.N.>X[.E.W.H.}.I c 2X/.&X[.*X*Xd.[.u o.6X*Xw.[.XX].R.w.*X#.K :X&X&X",
"(.D.[.s.<XM.d pXI.>X[.OXF.*X&XE.:X0 XX*XI.J..Xa.R. X[.g  X,X X/.d.[./.Q.f.gXI | 3Xd.OX*X~.U.d.5XF 3.iXE.H.*XT.>X&X[.#Xe.u lX[.D.",
"-.r.<.7./.k.q aX7.y.w.9.0.7.<.9.4X# [.S.I.a.2.y.9.w.N., ].F.w.0.0.w.3.0.4.1X/ ' 2X<.7.d.7.5.p.].k =.<X:.q.6.w.3.5.q.N.$.i qX>.7.",
"<X,X:X`.*X2.W pX*X&X:X*X&X<X*X:Xw.t >X:XR.*X}.*X*X*X&Xz [.>X[.=X*X&X&X*X=X6XQ o.gX&X*X:X*X*X*X1Xf <.7X>X:X!.*X}.-X*X&X3.E qXD.-X",
"k N a x N v o f d d D M Z P x f c . t / x Z B u d f M . m B f c D t / p x d # r f D S M f d f ' * 0 f d F F j / d P M r # ' f x ",
"0 s.3.u.9.b.3.9.<.1.$.y o.2.3.b.>.3.b.q.:.0 1.4.<.2.4.3.9.m.>.9.x i w.4.2.i.<.9.<.2.i _ M.u.2.:.v.<.<.4.1.' q M.O.9.4.b.2.q.9.! ",
"R kX2X*X1X1X1X1X3X2X1Xu 4X2X<X1X<X7X5X).2Xg 1X6X*X3X-X<X<X<X*XaX' o.kX*X1X,X2XtX6XjXL 0.zX-X5X<X.X7X`.1XaX2.R jX-X1X-X<X5X*X1Xg.",
"p <X5.<.N.7.7.<.&.s.V.# ;XD.5.>.i.<.>.=.*X- ].^.<.q.<.9.0.9.7.&X' Q 6X7.9.3.4.0.>.&Xi $.*X*.q.q.q.q.:.<.:X@.9 5X<.0.<.5.0.<.w.,.",
"] tX`.=X[.U./.:X/.*X:Xq }.2X*X=XR.(.&X(..Xf  X1XE.*XE.<X<X(.E.5X( T iX!.<X{.&XE.&X6XK <.aX(./.E.d.&X=X~. X1.R sX[.(.E.(.Q.&X2Xw.",
"* @...j.+.$.#.` | ` l.  ( 1.] #.+.X.j.! +.3 } ] ] e.{ #.#.F { $.7 0 $.Q +.k.} O.+.@.; d 1.+.[ +.$.` $.Q 1.H o @.+.| +.| 1.| #.' ",
"x d d s p C * K f s p F p x a f z O f z d c b f i d / . r / P i i N f Z u W # w P i f p p p f / = & ' s c P F d f i k M X s i c ",
"aXiX7XaXtXM.' cX7X3X5X7XaX7XqXaX7Xt [.pXjXtX7XyX7XaXqXP 4XiX7X7X7X$X5X7XtXjX..X.dX2XqXlX7X7X5XaXP i.cX1XaXoX7X$X2XaXjX9.P xX3X5X",
"q.d.2.4.*X$.r 7X<.7.q.0.s.9.D.>.R.o *Xw.3.I.].,.7.0.H.# :X].4.0.d.0.u.i.<.>Xi +.1Xt.9.w.2.8.q.&Xk u.[.>.i.q.M.q.q.6.[.z.k iX%.D.",
"7.a.d.s.(.:.s pXw.R./.0.d.I.(.s.<X% *X!.w.0.8.g.R.T.>X& 1X(.s.w.7.8.s.^.R.XXP #.iXy.R.].7.U./.*Xi 2.5X8.d.w.s.d.q.R. X#.q pX8.D.",
"{.w.w.V.N.X.f {.q.V.D.S.H.].V.q.q.r b.U.@XL.w.E.H.u.G.t m.M.M.S.&X{.9.T.N.{.F /  XA.G.V.D.N.N.N.d ` ;XS.].}.M.].M.S.V.{ d &XG.b.",
"* q w r r , # w % 9 r X t w 8 ; & . r % r 4 0 8 9 % t . 0 q 9 9 - & 9 & w ; # $ 9 r . # t 8 8 w - $ 0 & e e   t t % 8 r - 0 9 = ",
"F 1X-X:X[.).7X6X,X1X*Xi [.:X<X6X7X4X,X'.XXb s.2X1X6X1XoX*X1X3XaXW [ aX<X5X:X:X1X[.6X..2.7X&X:X2X*X2XeX*X4X>.p 6XXX2X<XoX*X*X1X*X",
"D %X^.G. X8.E.w.d.W.,X# oX>XE.R.w.Y.&XY.&Xw `. X8./.w. XF.R.s.<X] I iXp.E.F.[.Y.d.1Xp ,.jXd.].].d.E.R.8.6X$.i gXD.R.d.*X].g.E.<.",
"M tX8.M.w.=.I.<.<.W.H.% :XN.9.7.a.q.4.P.K.$ 3X].5.q.0.0.q.0.<.&XF ! 7X>.0.i.4.U.>.*Xz :.6X<.0.d.w.0.7.7. X+.9 hX2.q.q.0.w.y.R.Z.",
"' 3X&XH.[.-X6X*X=X X>Xl XX:X*X-XE.*X;X(.;Xf =X,X:X>X*X*X*X X*X7XP O.7X=X<X>XD.Q.=X4XQ 2.qX=X*X&X(.:X,X=X<Xu.c aX*X).E.[.:X(.<XN.",
"  i h t a k r a j t t   t D a r D v A q a + % d 9 q d r t f t y   & a 0 y M j D a b . $ c d t a S t f 8 t ;   t e g f b C f s 8 ",
"3.*.<.b.2.Q 0 4.$.:.2.#.b.b.>.O.:.$ +.^ c.n.X.>.2.$.$.8 #.3.3.4.b.b.>.$.2.4.d d 5.$.3.$.:.:.O.b.0 W M.:.u.b.3.2.1.O.<.' 0 <.O.$.",
"5X`. X1XaXm.P kX<X*X5X*X1X1X1X*X2Xt 2X3XoXgX<X3X2X4X:Xu 0X4X<X2X5X.X<X6X1XjXI ..xX*X5X7X1XtX<XaXs 4.kX1X:XiX1X1X2X-X7XM.K zX*XeX",
"9.i.b.4.&X#.q eXs.<.w.q.q.2.d.4.*X. &XR.3.>.>.t.9.m.D.8 9X{.q.<.s.4.3.4.2.>Xc l.2X^ 5.7.<.7.<.N.D $.*X2.3.8.q.3.9.>.{.k.0 jX>.9.",
"a./.D.w.`.2.K tXU.U.E.R.(.w./.U.<X8 !._.D./.&X).Y.E.*Xi [. XE.^.8./.d.(.U.<XL Y uXa.E.[.d.^.(.2Xu &.tXE.&XI.d.&X*XY.(.2.p pXY.(.",
"4.4.x.4.4. .t i.x.b.3.3.3.x.Z.b.$.4 4.4.v.Z.x.9.Z.@.b.> @.b.Z.O.3.M.1.2.3.S.k F M.$.x.b.z.v.b.b.C ] q.#.v.<.i.c.$.>.Z.j.< 9.4.$."
};
