/* XPM */
static char *_0288_60e3be9abe84ca571dfd9daa2a8f10c8daf9a5b8917187eab33575016bb245dc[] = {
/* columns rows colors chars-per-pixel */
"64 64 193 2 ",
"   c #150400",
".  c #190700",
"X  c #1D0C02",
"o  c #1F0C08",
"O  c #1F1205",
"+  c #1E110B",
"@  c #210E04",
"#  c #220F0A",
"$  c #241304",
"%  c #281606",
"&  c #2C1A05",
"*  c #25130B",
"=  c #29160C",
"-  c #27190E",
";  c #2B1A0C",
":  c #301E0D",
">  c #261311",
",  c #2A1612",
"<  c #271911",
"1  c #2D1B13",
"2  c #2E1B1A",
"3  c #28131A",
"4  c #311E15",
"5  c #311D1B",
"6  c #2F200B",
"7  c #33220D",
"8  c #3B270F",
"9  c #3A290D",
"0  c #2E2213",
"q  c #342314",
"w  c #382615",
"e  c #372A14",
"r  c #3B2A16",
"t  c #35231B",
"y  c #39261C",
"u  c #37291B",
"i  c #3C2A1C",
"p  c #331F20",
"a  c #352222",
"s  c #3A2622",
"d  c #372A22",
"f  c #3D2B23",
"g  c #3A2729",
"h  c #3E2A2A",
"j  c #3E3023",
"k  c #3F3128",
"l  c #3F2A33",
"z  c #412F1E",
"x  c #43321C",
"c  c #4B361E",
"v  c #412D24",
"b  c #422E2B",
"n  c #412521",
"m  c #443324",
"M  c #4A3525",
"N  c #4B3A25",
"B  c #45322B",
"V  c #49352C",
"C  c #46392D",
"Z  c #4C3A2C",
"A  c #523E25",
"S  c #503D2D",
"D  c #432E32",
"F  c #463232",
"G  c #4A3532",
"H  c #473932",
"J  c #4D3B33",
"K  c #463138",
"L  c #4A363A",
"P  c #4E3A3A",
"I  c #503733",
"U  c #523D34",
"Y  c #523D3B",
"T  c #4F402C",
"R  c #54422D",
"E  c #59452B",
"W  c #4E4035",
"Q  c #544234",
"!  c #594435",
"~  c #5B4A35",
"^  c #55433A",
"/  c #5B453B",
"(  c #56493E",
")  c #5D4B3C",
"_  c #5F503D",
"`  c #614C3C",
"'  c #624A3B",
"]  c #625135",
"[  c #695635",
"{  c #685836",
"}  c #63523D",
"|  c #6A553D",
" . c #6C5B3C",
".. c #715C3E",
"X. c #73613F",
"o. c #4E3B40",
"O. c #503B40",
"+. c #554142",
"@. c #5B4641",
"#. c #5D4B42",
"$. c #5D4B49",
"%. c #58444A",
"&. c #5E5242",
"*. c #5F5148",
"=. c #614D44",
"-. c #624E49",
";. c #645343",
":. c #695645",
">. c #675942",
",. c #6C5B44",
"<. c #65534A",
"1. c #69564B",
"2. c #66594E",
"3. c #6C5B4C",
"4. c #725E41",
"5. c #715E4C",
"6. c #675551",
"7. c #695751",
"8. c #6E5C52",
"9. c #69565A",
"0. c #715E53",
"q. c #725E59",
"w. c #6E6146",
"e. c #6F604C",
"r. c #736344",
"t. c #776847",
"y. c #796847",
"u. c #73634C",
"i. c #79664C",
"p. c #77684C",
"a. c #7A6A4C",
"s. c #786344",
"d. c #6D6151",
"f. c #746354",
"g. c #796655",
"h. c #776856",
"j. c #7B6A53",
"k. c #75635A",
"l. c #79665B",
"z. c #766A5B",
"x. c #7C6A5C",
"c. c #7E715F",
"v. c #7B6760",
"b. c #7D6B62",
"n. c #7D6968",
"m. c #766462",
"M. c #7D7163",
"N. c #826E54",
"B. c #816E5C",
"V. c #837255",
"C. c #83725C",
"Z. c #88765C",
"A. c #86785E",
"S. c #8A795E",
"D. c #816E63",
"F. c #826F68",
"G. c #847364",
"H. c #887665",
"J. c #8B7B64",
"K. c #85736A",
"L. c #89766C",
"P. c #86796C",
"I. c #8C7B6B",
"U. c #917E6B",
"Y. c #8C7C72",
"T. c #917E73",
"R. c #8E8366",
"E. c #908067",
"W. c #93836C",
"Q. c #8E8172",
"!. c #948373",
"~. c #998777",
"^. c #978974",
"/. c #9B8B74",
"(. c #95837A",
"). c #98867B",
"_. c #9B8B7C",
"`. c #9D927C",
"'. c #A09172",
"]. c #A29279",
"[. c #9D8B81",
"{. c #9E9085",
"}. c #A18E82",
"|. c #A49283",
" X c #A89584",
".X c #AA9984",
"XX c #A9978A",
"oX c #AC9C8D",
"OX c #A6948A",
"+X c #B39F87",
"@X c #AF9D91",
"#X c #B09E92",
"$X c #B8A695",
/* pixels */
"> 5 g s y y u a , > > @ f 1.u.u.H.j.Q ; % q y 1 q y - < @ $ $ : 7 7 z M N J b 1 < q 2 u O O O O e 6 O O ; 7 ; q i y 4 5 a 2 3 2 ",
"L P Y Y P Q Q Y f * > <.[.OX_.W.E.!./.!.I.L.v.<.F U q = <.I.I.W.j.a.H.!._.}.T.q.B 2 X - u Q &.w.h.u.>.} ;.} ~ ) C q > t D F K K ",
"L L F b m b b f F 2 > n.).K.f.g.x.C.G.H.L.!.(.).(.(./ 4 K._.I.!.J.j.5.g.D.F.L.F.@.u , t d.Q.c.c.j.g.g.g.C.H.C.G.l.Z s G Y L K K ",
"K K F F F B m f F B 5 n.n.f.f.x.u.e.u.f.u.8.f.k.8.8.y $ 3.H.x.I.H.N.N.B.l.l.D.F.<.a - X 2.M.d.f.3.u.w.3.f.h.u.f.D.C f Y F g D D ",
"D D F G G V V H b b 3 q.n.F.D.x.B.j.x.G.K.D.v.z.K.b.J t Z h.g.x.H.g.j.D.x.l.x.v.6.h 0 X ;.M.f.A.j.x.e.,.u.j.u.3.x.Z v ^ G s h h ",
"o.K G F B m B J P h # @.1.2.:.1.<.} ) :.,.3.0.8.-.;.m 1 u k.L.x.C.g.5.j.b.F.K.n.^ a 1 ; J 3.3.x.g.j.>.{ w.j.u.w.,.m w m b s t 2 ",
"p 5 2 4 q q q u q #   * ; 1 w m w e w i f i q 1 - = X X = B Q J i z m V B B B y B t $ $ % i M Q ! ! T x N T x x 7 % $ % ; 1 = , ",
"2 3 4 i M N M M f i i ; ; w 6 % % = = % 4 f m v V m J ^ / , X 1 U U ! m ; t V Y Q / U <.^ Q Z m $ 6 & $ & 6 % O 7 i i ; $ @ $ = ",
"2 X h.].R././.W.I.W.I.H.C.x.j.j.;.$ * V #X(.).T.(.|.).OX_.B o U T.2.0.f.b Z T.F.D.v.q.q.8.1.3.0.M X R x.j.J.C.,.J.!.c.C.x.q.0.v ",
"* ; H.H.r.t.r.t.j.C.c.h.j.j.j.j.f.; ; l.[.x.k.0.8.8.q.k.8.s < ^ g./ =.3.b Y D.<.-.=.' =./ ' ' ' Z e H.J.3.u.e.u.} p.3.h.z.g.z.Z ",
"= q R.p.r.V.y.y.t.j.j.j.u.j.a.g.x.v 1 }.L.f.f.5.h.k.K.G.v.@.v -.q.) <.q.G 0.q.^ / ^ Y ! U U Y ' ! j !.C.} ,.>.,.u.u.) ! Q ( 1.Q ",
"; $ A.t.X.V.a.y.r.p.j.g.h.j.j.j.z.Q 1 T.0.f.x.f.l.h.H.b.n.-.4 P q.-.8.7.V v.0.^ / / / / ' Y ' ' Q i H.<._ u.:.} :.>.} ;.` ` :.Q ",
"m X H.H.w.{ r.r.u.u.5.u.e.u.f.f.0.) * h.q.3.5.f.k.f.k.q.L.7.2 ^ @.+.@.Y 4 <.#.^ / / Y U U U U ! v q b.;.) >.>.,._ } ) } ) _ :.! ",
"J * 3.H.j.t.V.c.j.u.;.( ^ ( ) ` #.U = 7.L.k.0.D.k.l.l.l.Y.7.2 B Y J H B 1 P U J Y =.' / ! ' ! / f w 8.;.} } #.) ) Q ~ ~ Q ) ;.) ",
"a @ q U :.u.u. .,.! B f f f v m b v 1 Q 3.2.;.0.f.x.b.K.n.=.b s f b s V v B V v ! / ' / ' ' ' ' V 0 m U Q Q W N x x Q } &.;.( S ",
"# 2 X $ e m r i i ; @ * 4 4 q 4 t s = ; = i u q m f V V 2 , t . . X @ f J v v q m S S I I S U U m = % f i i m m m i m v w q = @ ",
"G I I V b B B B v # y / ' ' 4.;.:.1.1.;.1.6.=.Y < @ y f Q #.z.h.&.Q T m u T k O . e Q T { ~ E ~ x e 7 9 e 6 q e i ; * , , 4 h G ",
"U I Y Y I I I I U s U x.5.,.| ' ' / Y ' =.' =.=.y b F.8.G.K.(.|. X/.^.!.R.Q.d.0 0 c.`.Q.`././.'.W.R.R.^./.^.^._.(.^ t G / P F F ",
"n n b n b b D F Y y 5 1.! U U ! / ' ' ' Y =.=.-.s y Y.8.b.h.3.d.f.u.d.z.M.M.*.O C R.M.w.} { ,.t.w.>. .w.u.p.z.B.G.m * f Y F b G ",
"Y I I G F B D D G 5 p 9.=.=.' ' ' I V U / / @.=.f = k.f.2.3.h.8.8.f.z.d.k.M.( O k M.&.3.f.e.,.u.p.w.>.w.3.3.5.f.h.V 2 s B B F G ",
"b b b n b b F D p 2 , -.O.=.Y =.:.M v ' 1.=.@.1.v * =.F.W ^ c.c.z.K.G.x.z.z.( - k z.&.d.h.f.f.f.d.w.e.u.e.e.5.5.T.U : 5 b F V s ",
"I V b b F F F F s 5 5 I I -.=.1.' U S I @.=.@.U y * J b.Z Z ;.Q U Z C V W ( k - u d.d.*.) ;.0.f.c.h.d.e.e.d.z.M.).Y , 5 B F F Y ",
"n n 5 4 4 1 = = * # # n b D s s 5 v n y 5 z b y 2 o u m q u ; - % = * $ & - & O   6 k W U ( 2.;.~ ~ T T N N Q ^ =.y = 4 1 * = 5 ",
"= = * : y m Z Z U n 5 = 4 5 s s 4 @ % v z @ 2 @.k.8.8.; - = X m i S ) ) ( T T ~ ( $ O . $ $ % X 0 u k m i t - * 4 ; 4 5 y b b s ",
"z $ E !.!.!./.U.H.I.B.) $ * $ 4 M 0.T. XL.b = T.L.7.-.' * $ <.H.H.H.S.J.E.E.E.R.W.S.u.N x % % 0 k.Y.f.k.1.<.U s l.q.q.k.q.q.q.q.",
"z : u.^.A.a.V.a.j.u.f.u.Z 0 1 #. XT.D.D.F.7.5 / 7.@.-./ - i z.g.e.w.,.,.r.t.a.a.V.Z.]..X/.M - i 7.-.f f f b I B <.-.=.=.=.=./ ' ",
"e e H.J.V.r.t.r.r.] r.g.3.0 t K.L.D.N.1.q.F.I 5 -.I =.-.u m z.h.w.w.w.w.X.t.y.a...N.Z.Z.C.m w #.8.P s s b f I n / @.Y U I / Y ! ",
"e & C.i.a.a.a.y. .{ r.,.w.q 0 b.1.N.D.D.N.D.I # @ . 5 n $ j G.h.>.w.r.u.r.X.X.X.N.N.i.5.3.i 1 #.-.F G G P b V , Y / / Y / @.' =.",
"i q c.,.a.c.t.r.r.4.u. .e.u 0 q.D.N.D.D.N.D.I n l.n.F.<.q / I.3.} } ,.,. .{ { [ 4.s.4.C.v.i o $.+.h F b b b D , Y / / / U / ' ' ",
"u d c.u.p.p.s.r.r. .e.p.z.m 0 8.N.-.-.7.D.D.O.I T.T.(.v.C / K.z.e.u.u.r. . .......i.:.5.#.5 > -.+.D L b D I b 5 I / / / ! / ' / ",
"0 d *.2.,.u.t.y.s.s.e.j.3.B < *.q.D.B.D.D.7.n D.F.q.v.v.C 1 Q 3.d.e.3.3.,.4.....i.Z.u.;.F s 2 L %.F D F K I 5 3 n Y ' / I ! / I ",
"< 2 j Z Q } u.u.p.B.f.3.! j < W 7.D.N.D.D.%.n D.F.L.L.F.Q * y W 2.3.1.5.u.s.,. .A c : i 1 < 2 O.9.O.D L Y O.5 n n I ! I I M I n ",
"q q : q z V M w x i R j q r e q m S Z ) b q t b / P $.+.G h 2 f f f s i w w i % % 7 e R u.g.>.B 9.%.o.o.%.$.H t a 4 t y 1 @ $ % ",
"z.g.g.B.D.B.q.0.Q j ; e >.f.j.u.) i X M ^ Q B f < , 2 3 3 p 5 a G m B b u $ = w <.x.H.J.B.u.,.;.^ L L K l h g t G 7.k.=./ f.D.B.",
",.3.g.L.T.T.T.}.|.f.q >..Xx.t.3.u.m $ ( z.h.1.1.^ f * 5 P +.+.F P B P Y @.V 4 B k.z.3.;.) ) >.>.P k K H F k a # q.T.[.L.L.L.x.1.",
"x.z.x.g.g.5.8.q.G.<.. ,.I.~ ~ ! :.m = / 1.=.( =.1.G , B Y h F F h h L B +.@., y ;.#.T Q ) } ) Z W l F F J F a X <.z.k.8.B.D.g.B.",
"0.x.x.0.q.D.D.D.f.f.; g.3.` 5.| } m $ M ( =.) #.1.V * h P f f h D D Y f B B * f ^ #./ ) _ _ _ _ P H H m s d d 1 U F.L.5.1.0.8.q.",
"g.H.L.B.N.D.D.1.F.1.w H.:.' ! ! <.N $ e z Z M m V f , q b B G b g 2 g a g a * s / ) Q R T T } } - < 0 q 1 1 1 $ = U 7.l.D.q.q.B.",
"! =.;.=.=.=.' / I 5 = :.8.:./ 1.) c $ 6 7 q q q X * u 4 1 1 3 4 > > > 3 3 = * < u i e x r 7 6 % - O - - - = ; O $ @ * y v 5 z n ",
"@ % , , , , 3 4 = z 5 @ S 5.) ! ` N e } C.!.~.~.;.i v Q f.0.i @ Y 6.<.V 4 t Z Z M Q Q _ ] ~ ,.w.>.&.) m = ; j T Z / / S z y z : ",
"I @ 5 U Y =.-.@.Y / @.Y : I 3.! ` N ~ .X X].H.L.I.3.=.x.}.).) - (.L.D.1.@ ;.!.!.L.I.W.W.E.R.S.A.I.h._.d.% z.oXI.l.x.D.D.x.l.l.v.",
"I , n @.U I Y I / G B I 4 z =.' ;.x ) !.G.z.3.g.5.L.(.K.f.l.=.w :.k.x.f.w ,.C.u.j.j.p.t.e.p.j.C.f.z.H.;.O f.I.z.z.f.q.l.x.D.D.D.",
"M , n Y D b K I F b v V I b ' =.3.e ;.x.3.f.f.G.x.x.F.l.l.x.=.* ( C.g.:.w Q c.C.u.j.g.j.j.p.j.j.j.z.<.R ; C.x.8.0.1.3.f.l.q.l.D.",
"n , n F b D I D b G F f M n ^ ! 3.; 3.G.g.G.g.z.g.0.z.x.x.F.;.; x >.) Q e 7 Z Z N R ~ ~ ~ ! R R m u 0 1 $ d.M.b.0.8.q.f.B.D.q.8.",
"g s P G b L L D F P F s V h #.<.x.i f.g.3.g.l.l.:.b.L.b.h.K.2.1 $ q = e i X 7 w f i w y u i m B 6 X t u X m k.b.x.k.1.-.8.q.:.V ",
"* t P G D I L I F F F G F q B / ) v D.G.z.x.l.f.0.0.3.3.f.8.! s ) ' Q ^ Q @ i =./ Q J B v b H J d - m j - * H V <.1.=.I m V z 4 ",
"> 2 b F b b g b a g a h 0 * , q $ = :.F.x.8.#.V ^ J C U J q d f.(.).#X|.Y.w 4 v k h m h s a a t - O * 2 q 1 y 4 1 = % = = % % = ",
"<.J B b b a > > > 1 * , # m ;.<.q @ = ; ; w i t t y ; $ 2 * B Y.h.f.}.}.OX) 2 o # * > > > > > 3 d ^ m J ^ #.^ / V : 4 U B.L.L.D.",
"^.Q.^.G.H.(.C.g.f.P.g.= ;.B.l.=.m w ` } 5.u.N.l.N.B.=.z d O C Q.j.B.B.U.) ;./ =.W C d . 1 X ( 8.e.,.u.u.u.f.B.H.j.z w $X}.T.T.!.",
"f.p.c.c.C.H.x.j.H.W.5.i 3.:.! ;.S Z } ~ ' ' ' 4.' 8.5./ W - j (.x.g.u.u.) 3.G.T.b.K.z.( u - 2.Q.,.r.p.j.i.u.,.5.B.S e ~.K.B.B.B.",
"g.f.r.j.g.f.x.b.x.x.U i 1.7.U 5.m S ) / S ! N S M Z ^ =.$.j d Q.D.g.B.x.z.f.q.<.k.v.d.+.- O &.M.j.j.p.p.e.w.e.j.x.~ i H.x.B.D.H.",
"H.G.d.z.x.f.G.x.x.0.Z y / B.=./ 4 U Q / ' 1.U ! / ' -.=.H d p Y.x.5.0.f.x.k.f.q.q.k.k.<.2 0 ^ 2.H.g.5.>.,.,.u.h.j.;.M G.D.K.l.B.",
"k.z.2.h.M.G.L.f.q.=.I M n 7.-.b y / Y @./ :.' :.:.Y U G B B < $.L.K.x.D.k.8.6.q.9.q.m.6.# > a J >._ _ >.e.h.h.f.f.&.Z M.L.L.z.b.",
"z.k.;.<.f.v.b.2.' G Y U n ' =.I b =.#.@.U I U / S U ^ / =.@.2 t ) f.g.k.-.Q h D ^ P +.L * 2 4 f T m m N ~ Q W N m u t &.q.D.b.K.",
"C r u q y f f j v v I I n n n 2 * = : 5 n y V z z M U I J u 1 i w S Z 4 Q $./ b d a t , # 4 = < C u 0 0 0 0 6 - 0 - 0 k k +.#.&.",
"4 = m Q Q U m ! 5.D.F.D.T.T.N.-.V 1 * v 5.D.].U.D.' & ; ;.f.(.Q.H.J.0.v z.Y.k.2 <.8.v.$.b f 1 f % $ 0 i W ( 2.d.2.2.2.( t d 0 * ",
"- m oX!.C.x.( G.g.1.;.} ,.5.N.B.f.e . z.!.H.U.U.+Xi.& E ^.W.W.^..X].$Xe.Q } w m =.' ) =.1.3.5.g.u - Y.[.[.Y.P.Y.b.P.Q.M.9.k 0 < ",
"O N H.>.) } ~ } ! ' } ] ! S ' ` ( u & e.A.p.N.N.E E 9 ] V.u.p.u. .N.t.N & z Q ! / ' / / ) ' ;.:.t H {.P.z.2.6.d.k.d.8.*.d.n.2.H ",
"6 _ e.~ } ) ,.~ ~ } | } ' E ! ~ w.j   C p.y.] c E .. .p.p. .t.r.i.w.a.N 7 i.:.` U ' ' ' ! ~ ' ) t #.).8.d.m.8.f.k.k.d.2.k.P.M.q.",
"r _ _ _ 3.~ } _ ;.` ~ } ] | ] ' &.W & 6 j r x A Z.S.Z.V.t.r.V.p.Z.r.C.~ w I.>.Z / ' =.' / ' ) Q 0 C K.f.m.M.b.l.m.b.b.b.m.k.m.M.",
"m R _ Q >.) #.} ! Q A S ~ ' ' ! ( Q 0 $ w : c N.N.N.i.N.t.4.p.,.,.j.t.} @ S 5.U ! ' / I ' ' ' M 4 w z.K.f.q.k.0.l.q.q.l.v.v.b.M.",
"C C ;.W ^ #.<.:.) ) ) ) ' ~ ' ) z.H O $ :.0.N.C.V.N.N.i.j.y.p.g.a.H.I.5.% N ;.' @.@.' / ' =.! I v 1 <.L.l.l.D.k.q.l.q.0.d.b.K.b.",
"B q B j f m ! U ) =.=.' U S R / +.d , 1 0.B.N.N.N.N.5.|  .,.,.i.j.>.C.;.w Q U ^ =.@.@.' ' O.I V v 4 V =.=.q.l.0.3.f.k.5.1.k.B.G.",
"B O 2 f s , m b V B n 4 : : 4 q < + > * U ' ' ! ! ] c z c N r N Z m m v 4 t / U I I I I I b n z * 4 y 4 y V U #.:./ / 1.0.f.l.H."
};
