/* XPM */
static char *_2212_ced4bf8274826a9cb7c68039dbc1f271cd2088038db4e19291567921ff2bd24a[] = {
/* columns rows colors chars-per-pixel */
"64 64 229 2 ",
"   c #141E33",
".  c #171F37",
"X  c #19232D",
"o  c #162135",
"O  c #1B2435",
"+  c #1E2936",
"@  c #172239",
"#  c #1B253B",
"$  c #1E2A3C",
"%  c #222B36",
"&  c #222B3D",
"*  c #20253B",
"=  c #24323D",
"-  c #1D2542",
";  c #1E2A43",
":  c #1C274A",
">  c #1F3044",
",  c #222C43",
"<  c #282E43",
"1  c #232D4A",
"2  c #282F4B",
"3  c #212443",
"4  c #253244",
"5  c #2A3346",
"6  c #2D3945",
"7  c #25324B",
"8  c #2A354C",
"9  c #2D394D",
"0  c #323B4D",
"q  c #31374D",
"w  c #263252",
"e  c #2B3552",
"r  c #2E3A53",
"t  c #2D3B5C",
"y  c #273759",
"u  c #323C54",
"i  c #323D5A",
"p  c #303751",
"a  c #262F56",
"s  c #313F61",
"d  c #2A3660",
"f  c #36434D",
"g  c #354155",
"h  c #394455",
"j  c #35425B",
"k  c #3A455D",
"l  c #3C495E",
"z  c #354362",
"x  c #3A4562",
"c  c #3D4B64",
"v  c #3E4C6A",
"b  c #394469",
"n  c #3F5065",
"m  c #374574",
"M  c #414B5E",
"N  c #424D53",
"B  c #44525D",
"V  c #414D65",
"C  c #424E6A",
"Z  c #404764",
"A  c #435266",
"S  c #495366",
"D  c #44536B",
"F  c #49556D",
"G  c #45586C",
"H  c #49596E",
"J  c #444F73",
"K  c #465571",
"L  c #495672",
"P  c #475973",
"I  c #4B5A74",
"U  c #4D5D7A",
"Y  c #445379",
"T  c #515D75",
"R  c #535E79",
"E  c #545B77",
"W  c #515B67",
"Q  c #4E617A",
"!  c #536176",
"~  c #54647D",
"^  c #58657D",
"/  c #56697D",
"(  c #5A6B7E",
")  c #596374",
"_  c #5B717E",
"`  c #60707D",
"'  c #515F88",
"]  c #4E6184",
"[  c #556682",
"{  c #5A6582",
"}  c #566984",
"|  c #5B6B84",
" . c #55648A",
".. c #576A8A",
"X. c #5C6D8B",
"o. c #5E7185",
"O. c #5E718B",
"+. c #5C6D93",
"@. c #5D6E99",
"#. c #566C95",
"$. c #5E7292",
"%. c #5F739A",
"&. c #616F8B",
"*. c #606D86",
"=. c #607285",
"-. c #62738C",
";. c #69758C",
":. c #636F92",
">. c #606E9B",
",. c #637493",
"<. c #697593",
"1. c #667994",
"2. c #6A7B95",
"3. c #63749B",
"4. c #65799B",
"5. c #6B7B9B",
"6. c #69779C",
"7. c #737D9B",
"8. c #5E74A3",
"9. c #6475A2",
"0. c #6579A3",
"q. c #6D7DA2",
"w. c #6C7DAA",
"e. c #6879A7",
"r. c #707DA3",
"t. c #737FB1",
"y. c #6E819D",
"u. c #74839C",
"i. c #6E82A4",
"p. c #6E80AE",
"a. c #7384A3",
"s. c #7984A2",
"d. c #7589A3",
"f. c #7B89A4",
"g. c #7485AC",
"h. c #7689AB",
"j. c #7A8BAC",
"k. c #7B86AB",
"l. c #7485B2",
"z. c #768AB4",
"x. c #7B8CB4",
"c. c #7386BA",
"v. c #768BBB",
"b. c #7B8CBC",
"n. c #7A87B6",
"m. c #7F91B6",
"M. c #7E92BC",
"N. c #7B8EC3",
"B. c #798FC9",
"V. c #7588C3",
"C. c #7D91C3",
"Z. c #7F94CD",
"A. c #828DAC",
"S. c #8494AD",
"D. c #818CB6",
"F. c #8393B5",
"G. c #8294BC",
"H. c #8A96BA",
"J. c #8699BB",
"K. c #8B9ABD",
"L. c #8898B5",
"P. c #9CA7BB",
"I. c #808FCA",
"U. c #818FC0",
"Y. c #8294C3",
"T. c #8599C5",
"R. c #8B9BC5",
"E. c #8395CA",
"W. c #869BCB",
"Q. c #8C9DCA",
"!. c #8996C7",
"~. c #919EC7",
"^. c #8495D2",
"/. c #869AD2",
"(. c #8A9DD3",
"). c #8D9ED9",
"_. c #929ED0",
"`. c #8DA0C7",
"'. c #8DA1CC",
"]. c #93A2C4",
"[. c #94A3CD",
"{. c #9CA8C9",
"}. c #8DA2D3",
"|. c #8EA3DC",
" X c #92A3D4",
".X c #9DABD3",
"XX c #92A5DB",
"oX c #9CACDD",
"OX c #97A7DA",
"+X c #9EB1D9",
"@X c #A4AFC9",
"#X c #A6B2CF",
"$X c #A5B3D4",
"%X c #ACB5D4",
"&X c #AEBAD3",
"*X c #AEBCDF",
"=X c #B4BEDA",
"-X c #A2AFDC",
";X c #95A8E3",
":X c #ADBDE1",
">X c #A2B5E6",
",X c #A9B6E7",
"<X c #AEC1DE",
"1X c #B5C3DC",
"2X c #BAC5DE",
"3X c #B7C5D6",
"4X c #B2C2CF",
"5X c #B5C4E3",
"6X c #B9C5E4",
"7X c #BBCAE5",
"8X c #B5C4EB",
"9X c #BAC7EB",
"0X c #BCCBEB",
"qX c #B3C8E5",
"wX c #BCD1EC",
"eX c #BDCDF3",
"rX c #B7C8F5",
"tX c #BED2F5",
"yX c #C2CDE3",
"uX c #C2CEEA",
"iX c #C5D2ED",
"pX c #C9D8EF",
"aX c #C1CEF2",
"sX c #C0CDF9",
"dX c #C4D4F3",
"fX c #C5D3FE",
"gX c #CDDAFC",
"hX c #CAD6F6",
"jX c #D5E3FB",
/* pixels */
"} -.o.O.{ D O 6 8Xx.X.-.| -.,.X.d.$.X.o.O.o.V 9 , 4 -.X.O.X.U &.-.I X.,.X.,.-.[ -.X.O.| K | -.| D D A u w k.9Xy.} -.d.h.,.| ,.-.",
"-.} o.} U S O < a.2.{ &.-.~ O.,.$.[ -.} G K j 4 7 F | -.} &.| | | } 2.u.X.-.| U / | O.o.K X.{ P D D V 4 2 a.y.} o.| ,.X.O.1.~ | ",
"| X.P X.D S p 2 ~ U | -.| U -.-.O.o.;.| U K D   , D D -.-.X.D R -.X.^ X.I ^ -.| G o.O.| D / I D G x M 1 1 C X.X.P O.X.K | -.L X.",
",.C D S V 9 3 3 D C &.| D D ^ ( P | n H C v z V u S D D D I c I F P D P v U [ H G ~ o.U v G G K c c V $ , D A { P } Q ~ | G D | ",
"D F A A 5 6 Z 8 f c D L D I I D n G A A C w U =Xg 8 P H D c Z Z c c c C G K { H D D D x C D Z b n u j u l u C T P A v ! I V I F ",
"9 u 9 & O j 6X7.7 u 7 V V V S 9 1 5 5 7 2 x j.| k u 8 7 9 1 j j j u z x C c P D C v x v c V r p 9 c %XZ P.M h l j k l g j c x c ",
"& 4 8 1 2 r x x e @ ; 9 # & 8 , $ , 7 { : x <.r j I u x # ; 8 r h 7 e i C C D C C k i h u 9 & & ; | s.1 O 4 & , * & $ $ 1 1 : i ",
"u D 7X9XH..X9X6Xk.x h 5 h S u D 4 5 ) h 2 j v x z k E 4Xl , 8 R iXj.I i e i x S Z 4 # o * * O X $ k C i 0 0 & & O = + * 9 ^ 2.i ",
"}.<XT./.}.8XQ.}.tX).fXrX].2X| #XU 6 9 X z K. XrXiXqX'.oXv.b.iX3XT.z.$.5.t y s.i 5 - & 0 x x k e m g.9X7X2X2XhXZ z m.I V 9 4 5 9 ",
"$.'.`.x.V.T.`./.D.G.b.[.X.5Xf.X.t.b : 1 R.eX!.Y.v.T.v.B.|.E.b.G.v.%.] Q j.x L 7 r y a.6X XrXdXA.Q.Y.G.T.Q.~.9XA.m.eX2.B , @ r 5X",
"$.v.XX0.v.C.v.Z.l.a.c.a.1.@.| x.oXk.: i D.6.v.x.M.v.8.M.XXv.%.+.v.m.i.%.f.v h u '.|.W.b.^./.c.W.hXY.c.V.XXOX%.U i.-.o.H u 1 i [.",
"X.1.}.$.X.C.|.%.h. .@.1.a.3.O.%.G.&Xe h :Xd.:X2.z.i.$.j.%.+.X.-.m.%.5.| U 5.1 g wX'.qXL.z.l.5.R.1.a.9.N.N.v.b.g.O.P D A e 1 %XH.",
"O.-.%.$.o.q.v.X.X.3.O.g.$.$.x.X.=.4X& = R.O.2.| 4.X.-.O.X.a.*.;.%.$.| / K I ; u z.M.%.O.'.w.d.l.O.u.X.j.1...g.6.,...G v 2 u 1X5.",
"o.j.| / 1.y.O.4.4.T.o.[ +.-.l.| ! &Xu u x.4.l.+.3...,.| 1.:.| -.h.$.-.P P C 4 u j.3.| -.4...X.3.1.5X2./ -.o.3.X.g.{ L S , l ^ 2.",
"O.| -.-.O.-./ z.m...G | -.X.P | L A C ; l.:.$.-.J.1.X.3.d.+.1.X.,.| / D D Z D l g.9.[ -.l.9.:.g.5.$.o.-.o.=.^ -.| L H H u E 2.yX",
":.( X.+.| o.O.3.z.X.-.( -.[ A | D H C u g.O.O.` $.} O.| $.O.| | } U o.A F D 1 9 P X.o.` 1.I ( -.O.d.$.O.} U o.o.| A A O q | I -.",
"X.Q | X.X.-.G | X.,.| P | G S S K v G e h O.X.X.| | I X.| | U | P G ~ E V V 4 4 v U | | -.{ &.G | -.X.s.! o.| :.F S A & 9 D v X.",
"( ~ L | -.~ F D o./ n D P K L C C D x 8   G X.X.O.K | 1.X.P ( &.| ~ I D c D 1 , G l W A G ( | D v G K X.( | F K D D D ; 4 G ~ | ",
"I V D C D H G A G A D G D D L J k C c 1 V V F -.~ I | | ( F I V V P v b c D $ , 9 l H A C D G S K K J v I H D D v G j r 4 v k D ",
"D D D V F c F S G k D D v Z v C D x i b 2XT V C D D D K G D C S c c c C C e 5 ;.z r v D L J K D D j v C D c D I n v j y.k # 8 S ",
"r c j ; 7 D k S C v c Z x h V V V 9 ^ u.u 4 S D G K A G c F C j A l k 7 u 1 T @X{ e i M x C x u x x C V C S S Z c V j I ; - # u ",
"u &Xu.k # @ @ 1 e b x x r , 5 , @ i K J k @ 5 9 A V k l V j x [ h 9 9 o O # i R T S   % 8 q q = j u 7 r x j x l S 1 2 v K x D R ",
"r 9 9 E T i j i 2 i | e # : u u V U 0XaX].c 8 ; 7 < & 7 u ; I $Xy 7 5 4   S H.9XuX5X^ 9 u # & 9 D , @ 9 i e C < 9 S U ~.8X.X8XY ",
"u j r x uXjXhX{.0 l yXZ - c A.hXdXF._.R.gXgXL.1 6 5 5 3 # j -.j.k.&.u 9 M uXhX!.U.Y.eX{.x.J w i C 5 = # 2 D.6Xk C hXdXY.C.N.}.M.",
"D *XeXQ.U.E.(.rXF 6 N ' z c.M.B.C.^.XXN.tXY.C.B.7X5Xd.v K e k ! i j z l.iXdX(.C.|.B.C.0.$.*XF.g.3X5XD.t 8 ( C b ^.XX}.v.|.Z.}.8.",
"G.T.!.Y.Q.Q.Q.x.1 1 X 7.v OX'.E.v.Q.l.b.Y.U.c.(.!.W.N.Q.Y.m - - # < n.).G.x.(. XXX+Xm.h.F.4.9.3.H &.i.s ; u e D.W.Y.Z.Z.}.v.C.z.",
"eXz.x.x.rXZ.E.B.' 7 % a t :X3./.v.3.1.d.@.v.M.3.Q.p.R.8Xj.,.; , % A g.E.@.b.!.c.h.8XK...j.3.g.n.-.f.Y <.9   w :X}.l.C.`.B.z.C.%.",
"h.i.z.4.T.9.c.XXx.C % 2 x d.1.c.4.a.| ,.3.j.@.j.-.-.| -.-.H % X # 2Xq.5.X.X.l.B.%.$.O.O.O...3.g.K v I L u i i n.0.M.l.$.Z.h.%.h.",
"C.c.z.$.1.O.2.O.T.D # 9 A.&.,.g.;.X.X.X.-.-.+.x.4.u.O...+.2.i . e G.5.| 2.-.X.%.x.3.[ O.O.O.O.-.,.| P V ;.< i D.g.$.%.O.l.1.%.d.",
"c.3.h.O.O./ =./ X.H 4 , 5X;...4.o.| q.,.| -.X.:.X.O.O.X.:. .<.1 $ a.$.$.H.2._ o.h.X.,.u.-.o.O.} | I D I F , - U j...1.O.z.-.X.O.",
"| -.2.| } 1.[ U v B 4 4 r.=.$.g.O.1.L.} O.,.-.X.o.o._ =.Q P l + $ r.3.O.+.X.( 1.,.O.$.| o.O.| -.O.} | D C j > 7 X.O.q.;.r.-.+.-.",
",.X.a.O.1.Q D A G h # ; l.-.O.$.+.| O.O.$.G.O.=.$.Q G | P D M + # r.-.( X.O.O.c.O.o./ $.o.1.X.D } o.o.D D x = $ X.| 6.-.+.,.a.-.",
"O.X.-.} &.C K r p 9 $ u ( X.O.X.X.O.o.| X.X.X.| D } G | L L M & ; u.,.&.X.O.X.O.o.D } X.,.j.+.K X.| G L c 0 # & } 1.K.1.| O.O.o.",
"-.} | ~ -.| G V g # & & ( ,.X.g.h.} P o.F X.,.[ | o.l D C L l % # [ -.X.X.-.-.} | [ 1.,.X.a.2.| -.-.D x S 7 5 O P { ,.-.O.X.X.o.",
"| X.U ! { I D C i   @ # F -.-.4.m.$.} X.~ a.F.1.U | A D D Z 0 $ ; D o.| | X.o.O.-.2.5.X.X.6.| L [ K D D k 1 # 0 K -.} | ~ X.O.U ",
"! [ V U I D D C 8 1 , u F ^ X.X.i.$.O.O.,...O.} D D c D F x r O @ V P G -.o.I | K { ~ I ..-.| I ( D L c V 9 $ l P | U X.~ X.-.~ ",
"| G D D D L D C 9 h { e S E U { Y O.o.| I X.I D F A D D D C k 4 h c D G H | ( D G ~ P V H D D S F D c j D # < S A H ^ | R | O.U ",
"X.S G D D c L x u 8 z h u D F K X.o.| o.L G D A D D H D K C r # 1 S G x D P K F S P D A D A V D c v D D e @ $ k C H | P v ! ~ D ",
"D G C G G z U x e S =X7 1 u D D L G H G C D I A D c c c C x 7 7 l p v D A v v D A V A D D D C b v x c u 1 e 7 k D c G D D A G R ",
"S A L C G D k r : *.S.e R u u S D v l F Z C c A D n l v J i h f.2XZ r r k c v x c x V x x c C C D c 8 t 2.i ( &Xk C A A H A k D ",
"S S A x v D x r e s.e ; O.T u q r v C C i p % & v v l u p 2 [ u 9 u ) < p k C i i 9 0 & 3 % 6 q , < O , u - u.<.4 z J v D b v v ",
"u 1 < 5 $ 9 ; - % u g e x z 1 3 = w e u & . 8 * > 4 + & , e g 9 - e x * * p i e - & O . 2 3 * , T F 1 ; - h x t $ ; p l c C e g ",
"e x &XZ # u < 8 y s g.8XF.F.3Xf 9 ~ E 9 # 2 t e 7 g 9 7 i v G.J.T.5X5X8 & 8 *.%Xi 8 q M =X{.%XD j v i F.7X8Xx.Y u , O 8 k 0 & # ",
"yX2XH.!._.aXuX3XG.g.Y.M.'.dXjXQ + x R q 7 !.(.b.Q..X6X].8Xb.C./.V.>X-XL u u <.L 0 7.9XuXgXOX!.qXrX].i..X].!.m.Y.&X0 & { %X& # 2 ",
"jXm.%.Y.I.Y.!.R.0X4.m.v.U.E.E.c.& 1 7 o 9 Q.Y.N.oXfXgXT.N.E.|.B.E.N.m.tXS.7 e * y i.gX].m.W.E.M.C.}.p.G.rXC.v.C.H.A 0 i :.5 $ F.",
"5.3.h.%.8XY.N.I.T.z.z.e.t.w.b.z.<.; 8 7 j.g.b.N.5.J.q.X.x.M.z.e.N.c.C.+XdXj . 8 9.T.m.%.4.v.N.M.E.v.z.b.T.M.e.l...L z i s.1 > x.",
"3.J.h.1.5.5.+.v.V.N.C.$.%.| O.1.[ 7 , g.fX<X1.v.-.O.y.| 1.h.$.O.M.m.#.M.K.U 1 9 XX%.,.O. .4.3.h.v.z.3.$.i.O.$.$.,.j.@Xx 8 2 y i.",
"X.O.4.O...a.&.-.|.c.$.O.d.O.| U 3.4 j b.l.S.O.v.X.-.O.3.@.1.| ;.z.%.9.w.' q.4 5 (.3.u.-.-./ O.3.$.m.$.X.2.| O.| P U { h * : 9.1.",
"O.X.f.,.X.,.-.| 1.d.$.,.a.X.X.I D ; z h.3.J.X.,.$.X.X.$.L.O.X.$.-.| -.X.S I e i 1.O.-.( &.&.F.6.O...j.5.[ O.X.X.| A D M * 3 | *.",
"X.,.,.X.-.X.&.-.X.+.} | 1.,.| K D r x X.+.$.,.-.a.X.$.-.1.X.-.| | | X.-.P V 1 g i.$.X.-.,.| 1.X.X.,.a.X.I -.O.P ~ D T D , u F *.",
"o.| } X.-.X.-.J.O.X.,.-.{ X.I D r k u.O.X.O.| O.,.~ [ | | | X.X.o.-.X.D V F & & U [ X.-.{ &.| U X.O.2.X.| o./ G G C D 8 , - k | ",
"=.o.Q | X.,.X.O.! ~ O.X.U ~ D D 4 v y.,.O.X.X.&.X.~ -.-.;.X.! | D G { &.R V # 0 v X.2.| G *.| X.U ! | &.| U D G G D k u 9 7 r D ",
"D ^ V E | ~ ,.| D G G K K I V v 9 7 P | O.| E { F D -.| ( | | [ A H n G C V 8 # v P ( P D ~ R } D P L L L D D A v v z h %Xu.L 8 ",
"0 V H M I P C G D P D C D D V V r 5 D P | X.v L D I ~ D C D D D H c L C j T g u h x S D G F V D D F D c C D H A G x x g l -.6Xi ",
"0 q j u 7 D H D A V D C C V C c t X.j c I D I D c I G k D D C K v C V k F r j #Xk V H F D G D G D v c V D V c v x v c k F k u.i ",
"1 8 i @XF 9 S A D r c c x x u 1 g y.7 r v D c S D A c I c v c x b C r $ $ # <.J ; 7 r V A F C S S A D D c C c Z v k u - u Z i i ",
"% O * j 7.i x h 9 ; 1 5 = q 5 q j V h % $ r k V b c 0 0 0 # & # 3 % j f h i S i e 7 9 l u * % Z q u 9 l S i 0 0 e , * * S 6XZ 8 ",
"# , 3 1 p C uX&.7 8 e i u i r Z rX$X5Xv ; - 7 5 u 9 @ # ; 1 u i $ $ 9XpXiX-X9XoXQ.iXiX].x 4 u *Xi 7 r { 2 - k * * O O x 9X.XC O ",
"8 i 1XL e { 7.e 9 ].wX<XF.8X9XA.Y.Y.Q.R.{.$X; 9 0 % $ 7 *X~.Y.g.z.i.b.[.Y.(.tXoXXX'.T.C.8X8Xb. Xs.w 7 { 7.e # . = f k $X_.!.:XA.",
"j.j.A.z j *.s.e t qX].Q.Y.!.!.sXC.E.rXC.Y.G.e u W M 3Xk.oXE.0.M.Y.Y.(.(.C.V.M.M.B.v.N.}.>X>XY.N.O.g $ , 1 # 5 g qX7X7X.Xc.U.Y.aX",
"$.#.5.#XU r u i c G.g.T.}.}.N.G.h.%.M.p.9.D.#X9 $ F uX>.z.v.x.i.dX5.l.G.}.;Xv.B.|.B.B.C.B./.B.M.h.K ; , p Z =XyXoX-X~.*XQ.v.b.w.",
"X.O.j.2.f.1 # h 9Xj.4.#.0.m.N.v.-.,...$.+.F.I # 1 i g.3.b.b.+.O.m.,.>.n.$.v.q.l.m.c.Z.M.z.}.e.m.b.Y z 7.x x.aX~.V.b.X.5.j.#.n.h.",
"O.| 1.-.{ ; 4 k 0X,.X.,.q.%.3.W.X.-.u.X.X.U k # 1 j.h. .G.:.X.-.9.a.h.1.X.k.-.1.1.@.m...%.0. .$.g.K 1 e r j.h...9.X.,.2.$.3.5.1.",
"o.| ,.[ -.c o g j.1./ -.1.X.#.'.<.&.O.-.&.c D 5 y d.O.1...X.X.-.X.o.,.( X.>.,.Y.X.<.g.1.| a.,._ U A $ X = o.} O.| | | 1.%.g.X.X."
};
