/* XPM */
static char *_5092_14f5e1baa7a4df71f309fa02db75620e6a31128b880a1bde50911b186a52f5ed[] = {
/* columns rows colors chars-per-pixel */
"64 64 51 1 ",
"  c #150C0C",
". c #1E1313",
"X c #151913",
"o c #181914",
"O c #1C1E19",
"+ c #201414",
"@ c #251B1B",
"# c #291E1E",
"$ c #321E1E",
"% c #1E211C",
"& c #21231E",
"* c #29201F",
"= c #232521",
"- c #2C2222",
"; c #262924",
": c #292A25",
"> c #342424",
", c #382727",
"< c #372827",
"1 c #372928",
"2 c #3C2B2B",
"3 c #402E2E",
"4 c #403E3E",
"5 c #483838",
"6 c #464444",
"7 c #484545",
"8 c #4C4A4A",
"9 c #534E4E",
"0 c #545454",
"q c #595757",
"w c #5D5C5C",
"e c #5F6060",
"r c #646464",
"t c #696666",
"y c #676868",
"u c #6D6B6B",
"i c #706E6E",
"p c #757474",
"a c #787676",
"s c #777878",
"d c #7C7C7C",
"f c #828282",
"g c #8B8686",
"h c #8E8D8D",
"j c #908F8F",
"k c #8F908F",
"l c #90908F",
"z c #959393",
"x c #989696",
"c c #9D9D9D",
"v c #A1A2A2",
/* pixels */
"vz32psetxvvvvvvvvvfp22psercvvvvvvvvvvvvvvvvvvvvvvvvvvvfi22pseycv",
"vz2<usrtcvvcvvvvccfs21usryxvcvvvvvcvvvvvcvvvvvvvvvvvccga21iprrxv",
"fp=&qrssffffffffdgck;%0ypdfffffffffffffffffffffffffffgcj:&0rssff",
"dp=&wysddddddddfdfck;%0esdddddddfdddddddddddddddddddsfch:%wysddd",
"dp22hxfdfdddddddddfp=%0esddfdddddddddddffdddddddddddddfs&;hcfddd",
"dp,2zcffddddssssdddu=%0ydfddddssssssddssddssddddssdddddi&;hcfffd",
"fp#-pgccfdds0000ss08@*udccfddsq00000ss0qss00sfdsqqsdfddp**agccfd",
"it##tpkkappu8778uu84@*rsjjsiiu877778uu88ui88uppu88ippppr##rajjap",
"##..#---,22,>>>>21@@..**--***#>>>,,>==O%11&O11;=>,222,-#..&=2222",
"##--..-->,32333322>->----#..@->12222:;;:22::22::,2$$,>@@--;;2225",
"iipr##tuqwhzzzzzzzzzzzzkpr##yiqwhxxxzzjzzzxzzzzjat,,9q0whzkzzzxx",
"dfdi-#iprtxvvvvvvvvvvvvcgs-*isryxvcvcvvvvvvvvvvcgs2>qweucvvvvvvc",
"ddfi,<qradfffffffffffffgcj2>qessffffffffffffffffcj3,0easffffffff",
"dddp2,wtdddddddddddddddfcj21wyddddddddfddddddfdfcj2,wysddfdddddd",
"dddp,3jxfdddddddddddddddfp=:hxfddfdddddddddddddffp=:hxfddddddfdd",
"ddfi22zvfdddfdddfdddddddsu&:zvfdddddfddddddddddddi=:xvfddddddddd",
"dffi=:zvddddfddddddddddsq8O;zvfddddddddddddddddddi&;zvfddddddddd",
"dddp=;jcgfddddaaddasssds08O;kcffddddsassdssssddddp&:hcffddssdddf",
"dfdi#-pgccfsdsqqssq09qsdsu@-pgccffdsq99qssq09qsddp**agccfsq0addd",
"piit##rpjjsppi88ii8668ippy@@rpjjaipi8678ui8768upir##rakkpu88uppp",
"22*#..o@->1222>,22>>>122-@  OO->22,2>>>>2,>>$>2,-#..#---**>>1222",
"22--##  @->,233233332222--@O  @*>,23333333333332----##..@*,,2252",
"xxzjsr##riqwhxxzzzxzzzxzzkpe..yuqwjxzxzxxzxxzzzzxzzjpr##tiqwjzzz",
"vvvcgp-*iaryxvvvvvcvvvvvvcgp@@usryxvcvvcvcvvvvvvvvvcgp**tiryxvvc",
"ffffcj3>qrpsfffffffffffffgcj2>qessdfffffffdfffffffffck;o#1isffff",
"dddfcj3,wtsddddddddddddddfcj21eydddddddddddddsdddddfck;o*2ifddds",
"ddddfa23jxfdddddddddddddddfp=;hcddddddddddddddddddddfp&;fkfddddd",
"fddddp,2jcgfddsassaassssssdi&=kcgfddddssddssddssssssdi&;kvffddfd",
"ddddfi*-agccfsq00000090900si==pgccfddsqqssqqss000990sp##sgccfddd",
"pspipt**rpzxau876444467668uy&&rszjsppu88uu88uu866668ur##rsjzsppp",
",222##.+#-2222>>@@@@@@$>>>-#..**232222>>22>>2>@@@@@@##..##3322>2",
"2332>---->222332-#++#->222>>---122232332333332-#..@@@#->->223232",
"zzzzkzzkzzzzzzzzpt##yuqwhzzzzzzzxxxzxxxzzzzzzjsr#@yi0whzzzjxzzzz",
"vvvvvvvvvcvvvcvcfp##isrycvvvcvvcvvcvvcvcvcvvvcgp#*usryxvvvvvvvvv",
"ffffffffffgffffgvk:%0rssdffdffffffdffdffffffffcj;%0rsdfffffffffd",
"ddddddfddddddddfck:&qysddddddddddddddddddddddfcj;&wysdsdsdsddddd",
"ddddddddddddddddfp&;hcddddddddddddddddddddddddfs&;hxfddddddddddd",
"ddssssssddddssdddi=;kcfffdddpsssddddaaasddsssssi&;kcffddfddddddd",
"fsq0980qpdfs0qaddp11agcvccfs0000sdfs009qss0000sp#-pgccfddddddddd",
"pu766668uppy88ippy12yszzzzsu7667upiu8778uu8678ur@#rsjjppppippppp",
"11%O%%O@#*#*>,2,&&$$222332:%%O@@#--->>>122O&>>==..#-2222,22,3,,2",
"22:;=:*@++#*,,32::22233322::::=#..@->>2322::22:;:->>22$$,,,,3333",
"xzzzzkpt##riqwjxzzzzzzxxzzzzkkpr@#ruwwhzxxjxzzzjzjjjsu12uiqwhzxz",
"vvvvvcgp**isrtxvvvvvvvvvvvcvvcgs--sdyycvccvvvvvvvvccgs11iartxvvv",
"ffffffcz3>qrssffffffffffffffffck-;kvczffffffffffffffck;&qradfffd",
"dddddfch3>wtddddsddddddsddsddfch;;hcvcfddddddddddddfck;%wtsddddd",
"dddfddfp23jxfdddddddddddddddddfp&%wydfddddddddddddddfs=;hxdddddd",
"dddddddp23lcfffdddssddpsssssssdp=&0rdfdddddddddddddddi=-jcgfdddd",
"fddffddp22agccfdddq0ss00080800sp2,ifccfddddddddddddddp,2sfccdddd",
"piupippy,2tpllppiu88ui76666678it,,tazjaippippppiippipt,2tazjapip",
"21====12$$22;;2222>>2,@OO&:11>22$$>,3322222211=&=&&=2,>>2223222,",
"22::;:223332:;12$$22,>::::23332333333322$$,2,>::;;;;->2233333333",
"xzzzzkczxxxxzlst,2yiqwkxzzczxzcxxxxxxzat,,tiqwhxzzzg22gzzxzzzzzz",
"vvccvvvvvvvvvvfp,2pdercvvvvvvvvvvvvvvvga55ddricvvvvj22jvccvcvvvv",
"fftuvvvvvvvvvvfp22idercvvvvvvvvvvvvvvvccxzvcxcvvvvfs22sfttffffff",
"speycvvvvvvcvcgp21ipryxcvvvvvvvvvvvvvcvvvvvvvvvvvvgs21isrradddda",
"wrpdffffgfffffcl:=0rssffffffffffgfffffdfffffffffffck;&0rasdddddd",
"rtdddddddfdddfcl;O0esdddsdsdddsddddddddddddddsddddck;%wyddssssdd",
"cxddddddddddddfs=O0esdddddddddddddddddddddddddddddfs=;hxdsq99qsd",
"vcgffdddssssddsu=%qrdffdddssssssddsaddsadddsssdddddi&;kcgs099qsd",
"ffvcfdds009qddq8@$udccfdfs000090ssq0ssqqsddsqqsddddp#-pgcxdapsdd",
"iphkpipi8769it84+#rsjjpppy866668uy88iu87uppu88upsiiy##ypjzapippp",
"=-->22221>>>2>@@..##--###-,$>,>>;&O%2,%%12;=>>,221-*.+&;23,22212",
"....$$$$$$$$$$+...........$$$$$-XXX.-$oo$#o.#$$$$-....X.$$$$-$$$"
};
